<svg width="342" height="232" viewBox="-60 -40 402 152" xmlns="http://www.w3.org/2000/svg">
    <style>.ticket1,
        .ticket2,
        .pin {
        transform-origin: 100px 100px;
        transition: 1s cubic-bezier(.23,1.45,.49,.95);
        }
        svg:hover .ticket1 {
        transform: rotate(-10deg); }
        svg:hover .ticket2 {
        transform: rotate(-25deg); }
        .ticket1 {
        transform: rotate(-3deg); }
        .ticket2 {
        transform: rotate(-10deg); }</style>
    <g fill="none" fill-rule="evenodd">
        <path class="ticket1" d="M8.589 5.225h284.988V51.46c-10.441 0-18.905 8.464-18.905 18.905 0 10.44 8.464 18.905 18.905 18.905v46.234H8.589V89.269c10.44 0 18.905-8.464 18.905-18.905S19.03 51.459 8.589 51.459V5.225Z" fill="#2F0D30"/>
        <path class="ticket1" d="m285.957 47.034.002.005a24.418 24.418 0 0 0-3.921 1.7l-.002-.005a.5.5 0 0 0-.682-.187c-.313.178-.623.363-.928.555a.5.5 0 0 0-.157.689l.002.004a24.678 24.678 0 0 0-3.356 2.645l-.003-.003a.5.5 0 0 0-.707-.008c-.258.252-.51.51-.756.772a.5.5 0 0 0 .022.707l.004.004a24.607 24.607 0 0 0-2.574 3.41c-.001 0-.003 0-.004-.002a.5.5 0 0 0-.686.173c-.185.309-.363.622-.535.94a.501.501 0 0 0 .202.677l.005.002a24.308 24.308 0 0 0-1.615 3.956l-.005-.002a.5.5 0 0 0-.619.343 24.37 24.37 0 0 0-.275 1.045.5.5 0 0 0 .369.604h.005c-.3 1.374-.486 2.79-.546 4.238h-.005a.5.5 0 0 0-.51.49 24.38 24.38 0 0 0 0 1.083.5.5 0 0 0 .51.489h.005c.06 1.448.246 2.864.546 4.237l-.005.002a.5.5 0 0 0-.369.603c.084.351.176.7.275 1.045a.5.5 0 0 0 .619.343l.005-.002a24.309 24.309 0 0 0 1.615 3.956l-.005.002a.501.501 0 0 0-.202.678c.172.317.35.63.535.94a.5.5 0 0 0 .686.172l.004-.003a24.613 24.613 0 0 0 2.574 3.412l-.004.003a.5.5 0 0 0-.022.707c.246.263.498.52.756.772a.5.5 0 0 0 .707-.007l.003-.004a24.678 24.678 0 0 0 3.356 2.645l-.002.005a.5.5 0 0 0 .157.689c.305.191.615.376.928.554a.5.5 0 0 0 .682-.187l.002-.005a24.409 24.409 0 0 0 3.921 1.7l-.002.005a.5.5 0 0 0 .329.626l.157.048v.113a.5.5 0 0 0 .5.5v3.858a.5.5 0 0 0-.5.5v.975a.5.5 0 0 0 .5.5v3.858a.5.5 0 0 0-.5.5v.975a.5.5 0 0 0 .5.5v3.858a.5.5 0 0 0-.5.5v.975a.5.5 0 0 0 .5.5v3.858a.5.5 0 0 0-.5.5v.975a.5.5 0 0 0 .5.5v3.858a.5.5 0 0 0-.5.5v.975a.5.5 0 0 0 .5.5v3.858a.501.501 0 0 0-.5.488h-.005a.5.5 0 0 0-.5.5h-4.029a.5.5 0 0 0-.5-.5H280.4a.5.5 0 0 0-.5.5h-4.029a.5.5 0 0 0-.5-.5h-1.009a.5.5 0 0 0-.5.5h-4.029a.5.5 0 0 0-.5-.5h-1.01a.5.5 0 0 0-.5.5h-4.028a.5.5 0 0 0-.5-.5h-1.01a.5.5 0 0 0-.5.5h-4.029a.5.5 0 0 0-.5-.5h-1.009a.5.5 0 0 0-.5.5h-4.029a.5.5 0 0 0-.5-.5h-1.009a.5.5 0 0 0-.5.5h-4.029a.5.5 0 0 0-.5-.5h-1.009a.5.5 0 0 0-.5.5h-4.029a.5.5 0 0 0-.5-.5h-1.01a.5.5 0 0 0-.5.5h-4.029a.5.5 0 0 0-.5-.5h-1.009a.5.5 0 0 0-.5.5h-4.029a.5.5 0 0 0-.5-.5h-1.009a.5.5 0 0 0-.5.5h-4.029a.5.5 0 0 0-.5-.5h-1.009a.5.5 0 0 0-.5.5h-4.029a.5.5 0 0 0-.5-.5h-1.01a.5.5 0 0 0-.5.5h-4.028a.5.5 0 0 0-.5-.5h-1.01a.5.5 0 0 0-.5.5h-4.029a.5.5 0 0 0-.5-.5h-1.009a.5.5 0 0 0-.5.5h-4.029a.5.5 0 0 0-.5-.5h-1.009a.5.5 0 0 0-.5.5h-4.029a.5.5 0 0 0-.5-.5h-1.01a.5.5 0 0 0-.5.5h-4.028a.5.5 0 0 0-.5-.5h-1.01a.5.5 0 0 0-.5.5h-4.029a.5.5 0 0 0-.5-.5h-1.009a.5.5 0 0 0-.5.5h-4.029a.5.5 0 0 0-.5-.5h-1.009a.5.5 0 0 0-.5.5h-4.029a.5.5 0 0 0-.5-.5h-1.009a.5.5 0 0 0-.5.5h-4.029a.5.5 0 0 0-.5-.5h-1.01a.5.5 0 0 0-.5.5h-4.028a.5.5 0 0 0-.5-.5h-1.01a.5.5 0 0 0-.5.5h-4.029a.5.5 0 0 0-.5-.5h-1.009a.5.5 0 0 0-.5.5h-4.029a.5.5 0 0 0-.5-.5h-1.009a.5.5 0 0 0-.5.5h-4.029a.5.5 0 0 0-.5-.5h-1.01a.5.5 0 0 0-.5.5h-4.028a.5.5 0 0 0-.5-.5h-1.01a.5.5 0 0 0-.5.5h-4.029a.5.5 0 0 0-.5-.5h-1.009a.5.5 0 0 0-.5.5h-4.029a.5.5 0 0 0-.5-.5h-1.009a.5.5 0 0 0-.5.5h-4.029a.5.5 0 0 0-.5-.5h-1.009a.5.5 0 0 0-.5.5h-4.029a.5.5 0 0 0-.5-.5h-1.01a.5.5 0 0 0-.5.5h-4.029a.5.5 0 0 0-.5-.5h-1.009a.5.5 0 0 0-.5.5h-4.029a.5.5 0 0 0-.5-.5h-1.01a.5.5 0 0 0-.5.5h-4.028a.5.5 0 0 0-.5-.5h-1.01a.5.5 0 0 0-.5.5h-4.028a.5.5 0 0 0-.5-.5h-1.01a.5.5 0 0 0-.5.5H76.61a.5.5 0 0 0-.5-.5H75.1a.5.5 0 0 0-.5.5h-4.029a.5.5 0 0 0-.5-.5h-1.009a.5.5 0 0 0-.5.5h-4.029a.5.5 0 0 0-.5-.5h-1.01a.5.5 0 0 0-.5.5h-4.028a.5.5 0 0 0-.5-.5h-1.01a.5.5 0 0 0-.5.5h-4.028a.5.5 0 0 0-.5-.5h-1.01a.5.5 0 0 0-.5.5h-4.029a.5.5 0 0 0-.5-.5H44.91a.5.5 0 0 0-.5.5h-4.03a.5.5 0 0 0-.5-.5h-1.01a.5.5 0 0 0-.5.5h-4.028a.5.5 0 0 0-.5-.5h-1.01a.5.5 0 0 0-.5.5h-4.028a.5.5 0 0 0-.5-.5h-1.01a.5.5 0 0 0-.5.5h-4.029a.5.5 0 0 0-.5-.5h-1.009a.5.5 0 0 0-.5.5h-4.029a.5.5 0 0 0-.5-.5h-.005a.5.5 0 0 0-.5-.486v-3.848a.5.5 0 0 0 .5-.5v-.973a.5.5 0 0 0-.5-.5v-3.847a.5.5 0 0 0 .5-.5v-.973a.5.5 0 0 0-.5-.5v-3.847a.5.5 0 0 0 .5-.5v-.973a.5.5 0 0 0-.5-.5v-3.847a.5.5 0 0 0 .5-.5v-.973a.5.5 0 0 0-.5-.5v-3.847a.5.5 0 0 0 .5-.5v-.973a.5.5 0 0 0-.5-.5v-3.847a.5.5 0 0 0 .5-.5v-.108l.158-.046a.5.5 0 0 0 .335-.627 24.394 24.394 0 0 0 3.982-1.677l.002.005a.5.5 0 0 0 .68.194c.318-.177.632-.36.942-.551a.5.5 0 0 0 .164-.688l-.003-.004a24.642 24.642 0 0 0 3.415-2.647l.004.003a.5.5 0 0 0 .707.013c.262-.252.518-.51.768-.774a.5.5 0 0 0-.018-.707l-.003-.003a24.635 24.635 0 0 0 2.622-3.434l.005.002a.5.5 0 0 0 .686-.169c.188-.31.37-.626.544-.945a.5.5 0 0 0-.199-.679l-.004-.002a24.387 24.387 0 0 0 1.647-3.994l.005.001a.5.5 0 0 0 .62-.34c.1-.35.194-.7.28-1.055a.5.5 0 0 0-.368-.604l-.005-.001a24.56 24.56 0 0 0 .557-4.284h.005a.5.5 0 0 0 .51-.49 25.47 25.47 0 0 0 0-1.092.5.5 0 0 0-.51-.49h-.005a24.562 24.562 0 0 0-.557-4.284h.005a.5.5 0 0 0 .368-.605c-.086-.354-.18-.706-.28-1.054a.5.5 0 0 0-.62-.341l-.005.001a24.392 24.392 0 0 0-1.647-3.994l.004-.002a.5.5 0 0 0 .2-.679 26.001 26.001 0 0 0-.545-.945.5.5 0 0 0-.686-.17c-.002.002-.003.003-.005.003a24.642 24.642 0 0 0-2.622-3.434l.003-.003a.5.5 0 0 0 .018-.707c-.25-.264-.506-.522-.768-.774a.5.5 0 0 0-.707.013l-.004.003a24.642 24.642 0 0 0-3.415-2.647l.003-.004a.5.5 0 0 0-.164-.688c-.31-.19-.624-.374-.942-.55a.5.5 0 0 0-.682.198 24.385 24.385 0 0 0-3.982-1.677l.002-.005a.5.5 0 0 0-.337-.621 21.697 21.697 0 0 0-.157-.047v-.106a.5.5 0 0 0-.5-.5v-3.838a.5.5 0 0 0 .5-.5v-.97a.5.5 0 0 0-.5-.5v-3.837a.5.5 0 0 0 .5-.5v-.971a.5.5 0 0 0-.5-.5v-3.837a.5.5 0 0 0 .5-.5v-.971a.5.5 0 0 0-.5-.5V24.41a.5.5 0 0 0 .5-.5v-.971a.5.5 0 0 0-.5-.5v-3.837a.5.5 0 0 0 .5-.5v-.97a.5.5 0 0 0-.5-.5v-3.838a.5.5 0 0 0 .5-.485h.004a.5.5 0 0 0 .5-.5h4.03a.5.5 0 0 0 .5.5h1.009a.5.5 0 0 0 .5-.5h4.029a.5.5 0 0 0 .5.5h1.009a.5.5 0 0 0 .5-.5h4.029a.5.5 0 0 0 .5.5h1.009a.5.5 0 0 0 .5-.5h4.029a.5.5 0 0 0 .5.5h1.01a.5.5 0 0 0 .5-.5h4.028a.5.5 0 0 0 .5.5h1.01a.5.5 0 0 0 .5-.5h4.028a.5.5 0 0 0 .5.5h1.01a.5.5 0 0 0 .5-.5h4.029a.5.5 0 0 0 .5.5h1.009a.5.5 0 0 0 .5-.5h4.029a.5.5 0 0 0 .5.5h1.01a.5.5 0 0 0 .5-.5h4.028a.5.5 0 0 0 .5.5h1.01a.5.5 0 0 0 .5-.5H74.6a.5.5 0 0 0 .5.5h1.01a.5.5 0 0 0 .5-.5h4.028a.5.5 0 0 0 .5.5h1.01a.5.5 0 0 0 .5-.5h4.029a.5.5 0 0 0 .5.5h1.009a.5.5 0 0 0 .5-.5h4.029a.5.5 0 0 0 .5.5h1.01a.5.5 0 0 0 .5-.5h4.028a.5.5 0 0 0 .5.5h1.009a.5.5 0 0 0 .5-.5h4.029a.5.5 0 0 0 .5.5h1.01a.5.5 0 0 0 .5-.5h4.029a.5.5 0 0 0 .5.5h1.009a.5.5 0 0 0 .5-.5h4.029a.5.5 0 0 0 .5.5h1.009a.5.5 0 0 0 .5-.5h4.029a.5.5 0 0 0 .5.5h1.009a.5.5 0 0 0 .5-.5h4.029a.5.5 0 0 0 .5.5h1.01a.5.5 0 0 0 .5-.5h4.029a.5.5 0 0 0 .5.5h1.009a.5.5 0 0 0 .5-.5h4.029a.5.5 0 0 0 .5.5h1.009a.5.5 0 0 0 .5-.5h4.029a.5.5 0 0 0 .5.5h1.009a.5.5 0 0 0 .5-.5h4.029a.5.5 0 0 0 .5.5h1.01a.5.5 0 0 0 .5-.5h4.028a.5.5 0 0 0 .5.5h1.01a.5.5 0 0 0 .5-.5h4.029a.5.5 0 0 0 .5.5h1.009a.5.5 0 0 0 .5-.5h4.029a.5.5 0 0 0 .5.5h1.009a.5.5 0 0 0 .5-.5h4.029a.5.5 0 0 0 .5.5h1.009a.5.5 0 0 0 .5-.5h4.029a.5.5 0 0 0 .5.5h1.01a.5.5 0 0 0 .5-.5h4.029a.5.5 0 0 0 .5.5h1.009a.5.5 0 0 0 .5-.5h4.029a.5.5 0 0 0 .5.5h1.009a.5.5 0 0 0 .5-.5h4.029a.5.5 0 0 0 .5.5h1.009a.5.5 0 0 0 .5-.5h4.029a.5.5 0 0 0 .5.5h1.01a.5.5 0 0 0 .5-.5h4.028a.5.5 0 0 0 .5.5h1.01a.5.5 0 0 0 .5-.5h4.029a.5.5 0 0 0 .5.5h1.009a.5.5 0 0 0 .5-.5h4.029a.5.5 0 0 0 .5.5h1.009a.5.5 0 0 0 .5-.5h4.029a.5.5 0 0 0 .5.5h1.009a.5.5 0 0 0 .5-.5h4.029a.5.5 0 0 0 .5.5h1.01a.5.5 0 0 0 .5-.5h4.029a.5.5 0 0 0 .5.5h1.009a.5.5 0 0 0 .5-.5h4.029a.5.5 0 0 0 .5.5h1.009a.5.5 0 0 0 .5-.5h4.029a.5.5 0 0 0 .5.5h1.009a.5.5 0 0 0 .5-.5h4.029a.5.5 0 0 0 .5.5h1.01a.5.5 0 0 0 .5-.5h4.028a.5.5 0 0 0 .5.5h1.01a.5.5 0 0 0 .5-.5h4.029a.5.5 0 0 0 .5.5h1.009a.5.5 0 0 0 .5-.5h4.029a.5.5 0 0 0 .5.5h1.009a.5.5 0 0 0 .5-.5h4.029a.5.5 0 0 0 .5.5h.005a.5.5 0 0 0 .5.486v3.848a.5.5 0 0 0-.5.5v.973a.5.5 0 0 0 .5.5v3.848a.5.5 0 0 0-.5.5v.973a.5.5 0 0 0 .5.5v3.848a.5.5 0 0 0-.5.5v.973a.5.5 0 0 0 .5.5v3.847a.5.5 0 0 0-.5.5v.973a.5.5 0 0 0 .5.5v3.848a.5.5 0 0 0-.5.5v.973a.5.5 0 0 0 .5.5v3.848a.5.5 0 0 0-.5.5v.113l-.157.047a.5.5 0 0 0-.329.626Z" stroke="#fff" stroke-dasharray="1 5" stroke-linecap="round" stroke-linejoin="round"/>
        <path class="ticket2" d="M8 5h284.988v46.234c-10.441 0-18.905 8.464-18.905 18.905 0 10.44 8.464 18.905 18.905 18.905v46.233H8V89.044c10.441 0 18.905-8.464 18.905-18.905S18.441 51.234 8 51.234V5Z" fill="url(#a)"/>
        <path class="ticket2" d="m285.368 46.81.002.004a24.369 24.369 0 0 0-3.92 1.7l-.003-.005a.5.5 0 0 0-.682-.187c-.313.178-.623.363-.928.554a.5.5 0 0 0-.157.69l.002.004a24.678 24.678 0 0 0-3.356 2.645l-.003-.003a.5.5 0 0 0-.707-.008c-.258.252-.51.51-.756.772a.5.5 0 0 0 .026.71 24.607 24.607 0 0 0-2.574 3.412l-.004-.003a.5.5 0 0 0-.686.173 24.74 24.74 0 0 0-.534.94.5.5 0 0 0 .202.677l.004.002a24.398 24.398 0 0 0-1.615 3.956l-.005-.002a.5.5 0 0 0-.619.343 24.37 24.37 0 0 0-.275 1.045.5.5 0 0 0 .369.603l.005.002a24.613 24.613 0 0 0-.546 4.237h-.005a.5.5 0 0 0-.51.49 24.386 24.386 0 0 0 0 1.083.5.5 0 0 0 .51.489h.005c.06 1.448.246 2.864.546 4.237l-.005.002a.5.5 0 0 0-.369.603c.084.351.176.7.275 1.045a.5.5 0 0 0 .619.343l.005-.002a24.399 24.399 0 0 0 1.615 3.956l-.004.002a.5.5 0 0 0-.202.678c.171.317.35.63.534.94a.5.5 0 0 0 .69.17 24.613 24.613 0 0 0 2.574 3.41l-.004.004a.5.5 0 0 0-.022.707c.246.263.498.52.756.772a.5.5 0 0 0 .707-.008l.003-.003a24.678 24.678 0 0 0 3.356 2.645l-.002.004a.5.5 0 0 0 .157.69c.305.191.615.376.928.554a.5.5 0 0 0 .682-.187l.003-.005a24.36 24.36 0 0 0 3.92 1.7l-.002.005a.5.5 0 0 0 .33.626l.156.048v.113a.5.5 0 0 0 .5.5v3.858a.5.5 0 0 0-.5.5v.975a.5.5 0 0 0 .5.5v3.858a.5.5 0 0 0-.5.5v.975a.5.5 0 0 0 .5.5v3.858a.5.5 0 0 0-.5.5v.975a.5.5 0 0 0 .5.5v3.858a.5.5 0 0 0-.5.5v.975a.5.5 0 0 0 .5.5v3.858a.5.5 0 0 0-.5.5v.975a.5.5 0 0 0 .5.5v3.858a.501.501 0 0 0-.5.488h-.005a.5.5 0 0 0-.5.5h-4.029a.5.5 0 0 0-.5-.5h-1.009a.5.5 0 0 0-.5.5h-4.029a.5.5 0 0 0-.5-.5h-1.009a.5.5 0 0 0-.5.5h-4.029a.5.5 0 0 0-.5-.5h-1.009a.5.5 0 0 0-.5.5h-4.029a.5.5 0 0 0-.5-.5h-1.01a.5.5 0 0 0-.5.5h-4.029a.5.5 0 0 0-.5-.5h-1.009a.5.5 0 0 0-.5.5h-4.029a.5.5 0 0 0-.5-.5h-1.009a.5.5 0 0 0-.5.5h-4.029a.5.5 0 0 0-.5-.5h-1.009a.5.5 0 0 0-.5.5h-4.029a.5.5 0 0 0-.5-.5h-1.01a.5.5 0 0 0-.5.5h-4.028a.5.5 0 0 0-.5-.5h-1.01a.5.5 0 0 0-.5.5h-4.029a.5.5 0 0 0-.5-.5h-1.009a.5.5 0 0 0-.5.5h-4.029a.5.5 0 0 0-.5-.5h-1.009a.5.5 0 0 0-.5.5H214.9a.5.5 0 0 0-.5-.5h-1.009a.5.5 0 0 0-.5.5h-4.029a.5.5 0 0 0-.5-.5h-1.01a.5.5 0 0 0-.5.5h-4.029a.5.5 0 0 0-.5-.5h-1.009a.5.5 0 0 0-.5.5h-4.029a.5.5 0 0 0-.5-.5h-1.009a.5.5 0 0 0-.5.5h-4.029a.5.5 0 0 0-.5-.5h-1.009a.5.5 0 0 0-.5.5h-4.029a.5.5 0 0 0-.5-.5h-1.01a.5.5 0 0 0-.5.5h-4.028a.5.5 0 0 0-.5-.5h-1.01a.5.5 0 0 0-.5.5h-4.029a.5.5 0 0 0-.5-.5h-1.009a.5.5 0 0 0-.5.5h-4.029a.5.5 0 0 0-.5-.5h-1.009a.5.5 0 0 0-.5.5h-4.029a.5.5 0 0 0-.5-.5h-1.009a.5.5 0 0 0-.5.5h-4.029a.5.5 0 0 0-.5-.5h-1.01a.5.5 0 0 0-.5.5h-4.029a.5.5 0 0 0-.5-.5h-1.009a.5.5 0 0 0-.5.5h-4.029a.5.5 0 0 0-.5-.5h-1.009a.5.5 0 0 0-.5.5h-4.029a.5.5 0 0 0-.5-.5h-1.009a.5.5 0 0 0-.5.5h-4.029a.5.5 0 0 0-.5-.5h-1.01a.5.5 0 0 0-.5.5h-4.028a.5.5 0 0 0-.5-.5h-1.01a.5.5 0 0 0-.5.5h-4.029a.5.5 0 0 0-.5-.5h-1.009a.5.5 0 0 0-.5.5h-4.029a.5.5 0 0 0-.5-.5h-1.009a.5.5 0 0 0-.5.5h-4.029a.5.5 0 0 0-.5-.5h-1.01a.5.5 0 0 0-.5.5h-4.028a.5.5 0 0 0-.5-.5h-1.01a.5.5 0 0 0-.5.5h-4.029a.5.5 0 0 0-.5-.5h-1.009a.5.5 0 0 0-.5.5h-4.029a.5.5 0 0 0-.5-.5h-1.01a.5.5 0 0 0-.5.5H82.06a.5.5 0 0 0-.5-.5h-1.01a.5.5 0 0 0-.5.5h-4.028a.5.5 0 0 0-.5-.5h-1.01a.5.5 0 0 0-.5.5h-4.028a.5.5 0 0 0-.5-.5h-1.01a.5.5 0 0 0-.5.5h-4.029a.5.5 0 0 0-.5-.5h-1.01a.5.5 0 0 0-.5.5h-4.028a.5.5 0 0 0-.5-.5h-1.01a.5.5 0 0 0-.5.5h-4.028a.5.5 0 0 0-.5-.5h-1.01a.5.5 0 0 0-.5.5H45.83a.5.5 0 0 0-.5-.5h-1.01a.5.5 0 0 0-.5.5h-4.029a.5.5 0 0 0-.5-.5h-1.009a.5.5 0 0 0-.5.5h-4.029a.5.5 0 0 0-.5-.5h-1.01a.5.5 0 0 0-.5.5h-4.028a.5.5 0 0 0-.5-.5h-1.01a.5.5 0 0 0-.5.5h-4.028a.5.5 0 0 0-.5-.5h-1.01a.5.5 0 0 0-.5.5h-4.029a.5.5 0 0 0-.5-.5h-.004a.5.5 0 0 0-.5-.487v-3.847a.5.5 0 0 0 .5-.5v-.973a.5.5 0 0 0-.5-.5v-3.847a.5.5 0 0 0 .5-.5v-.973a.5.5 0 0 0-.5-.5v-3.847a.5.5 0 0 0 .5-.5v-.973a.5.5 0 0 0-.5-.5v-3.847a.5.5 0 0 0 .5-.5v-.973a.5.5 0 0 0-.5-.5v-3.847a.5.5 0 0 0 .5-.5v-.973a.5.5 0 0 0-.5-.5v-3.847a.5.5 0 0 0 .5-.5v-.108l.157-.046a.5.5 0 0 0 .337-.622l-.002-.005a24.395 24.395 0 0 0 3.982-1.677l.002.005a.5.5 0 0 0 .68.194c.319-.177.632-.36.942-.551a.5.5 0 0 0 .164-.688l-.003-.004a24.642 24.642 0 0 0 3.415-2.647.5.5 0 0 0 .71.016c.263-.252.519-.51.77-.774a.5.5 0 0 0-.018-.707c-.002 0-.003-.002-.004-.003a24.635 24.635 0 0 0 2.622-3.434l.005.002a.5.5 0 0 0 .686-.169c.188-.31.37-.626.544-.945a.5.5 0 0 0-.203-.681 24.379 24.379 0 0 0 1.647-3.994l.005.001a.5.5 0 0 0 .62-.34c.1-.35.194-.7.28-1.055a.5.5 0 0 0-.368-.604l-.005-.001a24.55 24.55 0 0 0 .557-4.284h.005a.5.5 0 0 0 .51-.49 25.468 25.468 0 0 0 0-1.092.5.5 0 0 0-.51-.49h-.005a24.552 24.552 0 0 0-.557-4.284l.005-.001a.5.5 0 0 0 .368-.604c-.086-.354-.18-.706-.28-1.054a.5.5 0 0 0-.62-.341l-.005.001a24.383 24.383 0 0 0-1.647-3.994l.004-.002a.5.5 0 0 0 .2-.679c-.175-.32-.357-.634-.545-.945a.5.5 0 0 0-.686-.17l-.005.003a24.642 24.642 0 0 0-2.622-3.434l.004-.003a.5.5 0 0 0 .017-.707c-.25-.264-.506-.522-.768-.774a.5.5 0 0 0-.707.013l-.004.003a24.642 24.642 0 0 0-3.415-2.647l.003-.004a.5.5 0 0 0-.164-.688c-.31-.19-.623-.374-.942-.55a.5.5 0 0 0-.68.193l-.002.005a24.394 24.394 0 0 0-3.982-1.677l.002-.005a.5.5 0 0 0-.337-.621 21.722 21.722 0 0 0-.157-.047v-.107a.5.5 0 0 0-.5-.5V41.61a.5.5 0 0 0 .5-.5v-.97a.5.5 0 0 0-.5-.5V35.8a.5.5 0 0 0 .5-.5v-.97a.5.5 0 0 0-.5-.5v-3.837a.5.5 0 0 0 .5-.5v-.971a.5.5 0 0 0-.5-.5v-3.837a.5.5 0 0 0 .5-.5v-.971a.5.5 0 0 0-.5-.5v-3.837a.5.5 0 0 0 .5-.5v-.971a.5.5 0 0 0-.5-.5V12.57a.5.5 0 0 0 .5-.486h.005a.5.5 0 0 0 .5-.5h4.028a.5.5 0 0 0 .5.5h1.01a.5.5 0 0 0 .5-.5h4.029a.5.5 0 0 0 .5.5h1.009a.5.5 0 0 0 .5-.5h4.029a.5.5 0 0 0 .5.5h1.01a.5.5 0 0 0 .5-.5h4.028a.5.5 0 0 0 .5.5h1.01a.5.5 0 0 0 .5-.5h4.028a.5.5 0 0 0 .5.5h1.01a.5.5 0 0 0 .5-.5h4.029a.5.5 0 0 0 .5.5h1.009a.5.5 0 0 0 .5-.5h4.029a.5.5 0 0 0 .5.5h1.01a.5.5 0 0 0 .5-.5h4.028a.5.5 0 0 0 .5.5h1.01a.5.5 0 0 0 .5-.5h4.028a.5.5 0 0 0 .5.5h1.01a.5.5 0 0 0 .5-.5h4.028a.5.5 0 0 0 .5.5h1.01a.5.5 0 0 0 .5-.5h4.029a.5.5 0 0 0 .5.5h1.009a.5.5 0 0 0 .5-.5h4.029a.5.5 0 0 0 .5.5h1.01a.5.5 0 0 0 .5-.5h4.028a.5.5 0 0 0 .5.5h1.01a.5.5 0 0 0 .5-.5h4.028a.5.5 0 0 0 .5.5h1.01a.5.5 0 0 0 .5-.5h4.029a.5.5 0 0 0 .5.5h1.009a.5.5 0 0 0 .5-.5h4.029a.5.5 0 0 0 .5.5h1.009a.5.5 0 0 0 .5-.5h4.029a.5.5 0 0 0 .5.5h1.009a.5.5 0 0 0 .5-.5h4.029a.5.5 0 0 0 .5.5h1.01a.5.5 0 0 0 .5-.5h4.028a.5.5 0 0 0 .5.5h1.01a.5.5 0 0 0 .5-.5h4.029a.5.5 0 0 0 .5.5h1.009a.5.5 0 0 0 .5-.5h4.029a.5.5 0 0 0 .5.5h1.009a.5.5 0 0 0 .5-.5h4.029a.5.5 0 0 0 .5.5h1.009a.5.5 0 0 0 .5-.5h4.029a.5.5 0 0 0 .5.5h1.01a.5.5 0 0 0 .5-.5h4.029a.5.5 0 0 0 .5.5h1.009a.5.5 0 0 0 .5-.5h4.029a.5.5 0 0 0 .5.5h1.009a.5.5 0 0 0 .5-.5h4.029a.5.5 0 0 0 .5.5h1.009a.5.5 0 0 0 .5-.5h4.029a.5.5 0 0 0 .5.5h1.01a.5.5 0 0 0 .5-.5h4.028a.5.5 0 0 0 .5.5h1.01a.5.5 0 0 0 .5-.5h4.029a.5.5 0 0 0 .5.5h1.009a.5.5 0 0 0 .5-.5h4.029a.5.5 0 0 0 .5.5h1.009a.5.5 0 0 0 .5-.5h4.029a.5.5 0 0 0 .5.5h1.009a.5.5 0 0 0 .5-.5h4.029a.5.5 0 0 0 .5.5h1.01a.5.5 0 0 0 .5-.5h4.029a.5.5 0 0 0 .5.5h1.009a.5.5 0 0 0 .5-.5h4.029a.5.5 0 0 0 .5.5h1.009a.5.5 0 0 0 .5-.5h4.029a.5.5 0 0 0 .5.5h1.009a.5.5 0 0 0 .5-.5h4.029a.5.5 0 0 0 .5.5h1.01a.5.5 0 0 0 .5-.5h4.028a.5.5 0 0 0 .5.5h1.01a.5.5 0 0 0 .5-.5h4.029a.5.5 0 0 0 .5.5h1.009a.5.5 0 0 0 .5-.5h4.029a.5.5 0 0 0 .5.5h1.009a.5.5 0 0 0 .5-.5h4.029a.5.5 0 0 0 .5.5h1.009a.5.5 0 0 0 .5-.5h4.029a.5.5 0 0 0 .5.5h1.01a.5.5 0 0 0 .5-.5h4.029a.5.5 0 0 0 .5.5h1.009a.5.5 0 0 0 .5-.5h4.029a.5.5 0 0 0 .5.5h1.009a.5.5 0 0 0 .5-.5h4.029a.5.5 0 0 0 .5.5h1.009a.5.5 0 0 0 .5-.5h4.029a.5.5 0 0 0 .5.5h.005a.5.5 0 0 0 .5.487v3.848a.5.5 0 0 0-.5.5v.973a.5.5 0 0 0 .5.5v3.848a.5.5 0 0 0-.5.5v.973a.5.5 0 0 0 .5.5v3.848a.5.5 0 0 0-.5.5v.973a.5.5 0 0 0 .5.5v3.847a.5.5 0 0 0-.5.5v.973a.5.5 0 0 0 .5.5v3.848a.5.5 0 0 0-.5.5v.973a.5.5 0 0 0 .5.5v3.848a.5.5 0 0 0-.5.5v.112l-.156.048a.5.5 0 0 0-.33.626Z" stroke="#fff" stroke-dasharray="1 5" stroke-linecap="round" stroke-linejoin="round"/>
    </g>
    <path class="ticket2" d="m104.72 64.791a4.753 4.753 0 0 0-9.506 0 4.75 4.75 0 0 0 2.569 4.219l-1.762 7.616h7.891l-1.761-7.616a4.75 4.75 0 0 0 2.569-4.219z" fill="#fff"/>
    <path class="ticket2" d="M118.56 74.322c-.923 7.167-7.06 12.724-14.474 12.724h-8.232c-8.05 0-14.598-6.549-14.598-14.598v-8.231c0-8.05 6.548-14.598 14.598-14.598h8.232c7.414 0 13.55 5.557 14.474 12.724h4.876c-.946-9.844-9.262-17.568-19.35-17.568h-8.232c-10.72 0-19.443 8.722-19.443 19.442v8.231c0 10.72 8.722 19.442 19.443 19.442h8.232c10.088 0 18.404-7.724 19.35-17.568h-4.876Zm46.329-16.184h-4.851v22.633h4.851V58.138Zm14.709 17.333-6.172-17.333h-5.209l8.355 22.633h5.877l8.355-22.633h-5.122l-6.084 17.333Zm19.384-17.333h-4.85v22.633h4.85V58.138Zm20.299 14.799c-.661 2.479-2.618 3.951-5.294 3.951-3.762 0-6.29-2.97-6.29-7.39 0-4.473 2.528-7.478 6.29-7.478 2.752 0 4.634 1.402 5.335 3.952h5.087c-1.038-5.148-4.786-8.098-10.334-8.098-3.358 0-6.21 1.105-8.249 3.195-2.036 2.086-3.112 5.001-3.112 8.43 0 3.464 1.054 6.375 3.046 8.418 1.989 2.04 4.819 3.118 8.183 3.118 5.59 0 9.479-3.024 10.468-8.098h-5.13Zm-68.327 0c-.661 2.479-2.617 3.951-5.294 3.951-3.762 0-6.29-2.97-6.29-7.39 0-4.473 2.528-7.478 6.29-7.478 2.752 0 4.634 1.402 5.335 3.952h5.087c-1.038-5.148-4.786-8.098-10.334-8.098-3.358 0-6.21 1.105-8.249 3.195-2.036 2.086-3.112 5.001-3.112 8.43 0 3.464 1.054 6.375 3.046 8.418 1.989 2.04 4.819 3.118 8.183 3.118 5.59 0 9.48-3.024 10.468-8.098h-5.13Z" fill="#fff"/>
    <defs>
        <linearGradient id="a" x1="-12" x2="265.5" y1="-7" y2="130" gradientUnits="userSpaceOnUse">
            <stop stop-color="#FF6B4E" offset="0"/>
            <stop stop-color="#D93C3A" offset="1"/>
        </linearGradient>
    </defs>/>
</svg>